<svg width="18" height="18" xmlns="http://www.w3.org/2000/svg"><path d="M18 11.43v1.507h-2.516V18h-1.568v-5.063h-2.517V11.43H18Zm-5.78-6.955 1.123 1.127-8.05 8.086-1.122-1.127 8.05-8.086ZM3.042 0l.2.003c.458.014.846.076 1.164.186l.175.067c.284.116.519.261.706.434l.107.106c.17.181.3.386.39.614l.075.207c.068.21.114.424.14.645l-1.478.19-.032-.15c-.084-.337-.221-.585-.414-.745L3.996 1.5c-.218-.144-.526-.216-.923-.216l-.154.003a2.307 2.307 0 0 0-.502.065l-.122.037c-.116.04-.214.087-.292.142l-.073.057a.565.565 0 0 0-.147.2l-.035.1a.762.762 0 0 0-.028.206l.005.116c.019.223.096.395.231.516l.064.05c.162.117.408.208.738.275l1.028.2.198.043c.71.163 1.239.41 1.585.741l.09.094c.317.355.476.845.476 1.468l-.005.163a2.185 2.185 0 0 1-.179.748l-.066.135a2.052 2.052 0 0 1-.479.59l-.126.1a2.68 2.68 0 0 1-.781.385l-.16.046c-.327.085-.7.128-1.12.128l-.214-.004c-.917-.029-1.626-.247-2.13-.654l-.112-.098C.293 6.7.04 6.071 0 5.251h1.583l.016.15c.054.386.197.673.43.86l.092.066c.258.166.614.25 1.067.25l.142-.004a1.9 1.9 0 0 0 .477-.075l.12-.043a1.1 1.1 0 0 0 .289-.168l.073-.069a.726.726 0 0 0 .152-.242l.03-.09c.026-.094.039-.193.039-.299l-.007-.097a.866.866 0 0 0-.214-.455l-.06-.062c-.156-.14-.405-.244-.747-.312l-.975-.179-.226-.044a5.423 5.423 0 0 1-.792-.229l-.17-.071c-.22-.1-.41-.223-.569-.366L.636 3.66a1.773 1.773 0 0 1-.343-.546l-.048-.133a2.628 2.628 0 0 1-.108-.792l.004-.151a1.93 1.93 0 0 1 .21-.796l.076-.133A1.94 1.94 0 0 1 .95.558L1.08.47c.227-.14.489-.249.786-.328A4.581 4.581 0 0 1 3.04 0Z" fill="#F4F4ED"/></svg>