<svg width="30" height="30" xmlns="http://www.w3.org/2000/svg"><path d="M7.754 11.802c.039.511.204.884.494 1.116.291.232.72.349 1.284.349.272 0 .5-.03.686-.087a1.33 1.33 0 0 0 .453-.233.827.827 0 0 0 .25-.343c.05-.132.076-.275.076-.43a.928.928 0 0 0-.244-.61c-.163-.19-.461-.329-.896-.413l-1.08-.198a6.42 6.42 0 0 1-1.127-.302 2.606 2.606 0 0 1-.82-.483 1.925 1.925 0 0 1-.505-.726 2.728 2.728 0 0 1-.174-1.023c0-.396.08-.744.238-1.047.16-.302.38-.554.662-.755a3.085 3.085 0 0 1 1.017-.46C8.463 6.053 8.898 6 9.37 6c.604 0 1.107.07 1.51.209.403.14.728.324.976.553.248.229.432.494.552.796.12.303.2.616.239.941l-1.639.21c-.085-.457-.25-.786-.494-.988-.244-.202-.614-.302-1.11-.302-.294 0-.536.025-.725.075-.19.05-.344.116-.46.198a.67.67 0 0 0-.244.284.843.843 0 0 0-.07.338c0 .31.088.542.262.698.174.155.47.275.889.36l1.139.22c.898.18 1.557.468 1.975.867.418.4.628.975.628 1.726 0 .365-.068.7-.204 1.006a2.233 2.233 0 0 1-.605.802 2.82 2.82 0 0 1-1.005.535c-.402.128-.875.192-1.417.192-1.13 0-1.997-.242-2.597-.727-.6-.484-.924-1.214-.97-2.191h1.754Zm11.706 6.513h-2.798V16.65H24v1.666h-2.797v5.604h-1.744zm-9.14 1.116a1.145 1.145 0 1 1-1.682 1.555 1.145 1.145 0 0 1 1.682-1.555m10.9-9.873a1.149 1.149 0 1 1-1.686 1.562 1.149 1.149 0 0 1 1.686-1.562" fill-rule="evenodd"/></svg>