<svg width="157" height="23" xmlns="http://www.w3.org/2000/svg"><path d="M130.97 4.819c1.831 0 3.2.611 4.109 1.837.907 1.225 1.36 2.906 1.36 5.042 0 1.027-.13 1.962-.39 2.806-.261.846-.64 1.57-1.135 2.174a5.11 5.11 0 0 1-1.802 1.403c-.706.332-1.504.497-2.394.497a5.72 5.72 0 0 1-1.952-.348c-.647-.232-1.257-.694-1.828-1.39V23h-3.528V5.216h3.428V6.93c1.007-1.409 2.385-2.111 4.132-2.111ZM7.308 0c1.31 0 2.402.148 3.276.446.873.298 1.579.692 2.117 1.18.537.49.936 1.057 1.197 1.702a7.9 7.9 0 0 1 .516 2.011l-3.553.448c-.185-.977-.541-1.68-1.072-2.111-.528-.43-1.33-.646-2.406-.646-.638 0-1.162.053-1.574.161-.413.109-.744.248-.996.422a1.451 1.451 0 0 0-.53.61c-.1.231-.15.47-.15.719 0 .663.19 1.16.567 1.491.378.331 1.021.588 1.929.769l2.468.473c1.949.38 3.378.998 4.284 1.85.907.853 1.36 2.083 1.36 3.688 0 .78-.147 1.495-.44 2.149a4.778 4.778 0 0 1-1.311 1.714c-.579.488-1.306.869-2.18 1.142-.873.273-1.898.41-3.074.41-2.453 0-4.33-.518-5.631-1.552C.803 16.04.1 14.48 0 12.394h3.805c.084 1.093.442 1.888 1.072 2.385.63.496 1.557.745 2.784.745.588 0 1.083-.063 1.486-.187.404-.124.732-.29.983-.497.252-.206.433-.45.543-.733.108-.28.163-.587.163-.918 0-.464-.177-.899-.53-1.305-.352-.404-.999-.699-1.94-.882l-2.342-.421a13.96 13.96 0 0 1-2.444-.646c-.706-.265-1.3-.609-1.778-1.031A4.129 4.129 0 0 1 .706 7.35C.454 6.739.329 6.01.329 5.166c0-.844.17-1.59.515-2.235A4.592 4.592 0 0 1 2.28 1.316C2.893.886 3.63.558 4.486.335 5.342.11 6.283 0 7.308 0Zm22.527 5.216v8.097c0 .927.168 1.552.504 1.876.337.321.798.483 1.387.483.454 0 .827-.066 1.12-.198a3.1 3.1 0 0 0 .844-.573c.27-.23.484-.507.644-.831.16-.322.24-.674.24-1.055v-7.8h3.528v12.966h-3.428v-1.788c-.538.761-1.146 1.316-1.827 1.663a4.71 4.71 0 0 1-2.18.522c-1.495 0-2.595-.384-3.3-1.155-.706-.769-1.059-1.981-1.059-3.638v-8.57h3.527Zm39.21-.397c1.025 0 1.95.157 2.774.47a5.863 5.863 0 0 1 2.102 1.355c.58.587 1.021 1.308 1.324 2.16.302.854.453 1.81.453 2.87 0 1.076-.154 2.04-.466 2.893-.311.854-.756 1.578-1.335 2.174a5.742 5.742 0 0 1-2.105 1.365c-.822.316-1.738.473-2.746.473-2.117 0-3.755-.596-4.914-1.789-1.16-1.192-1.739-2.897-1.739-5.116 0-1.06.156-2.016.467-2.87.31-.852.756-1.573 1.335-2.16A5.857 5.857 0 0 1 66.3 5.289c.823-.313 1.739-.47 2.747-.47Zm75.935-.001c2.016 0 3.533.571 4.548 1.715 1.016 1.141 1.525 2.681 1.525 4.619v1.392h-9.122c.033 1.042.302 1.858.806 2.446.504.587 1.26.88 2.268.88 1.394 0 2.219-.579 2.47-1.738h3.427c-.235 1.458-.827 2.562-1.776 3.317-.95.753-2.332 1.13-4.146 1.13-2.184 0-3.827-.597-4.926-1.79-1.1-1.19-1.651-2.88-1.651-5.066 0-1.093.16-2.065.479-2.92.319-.85.769-1.576 1.347-2.17a5.678 5.678 0 0 1 2.08-1.355c.806-.306 1.696-.46 2.67-.46Zm-51.835 0c2.016 0 3.533.571 4.548 1.715 1.017 1.141 1.525 2.681 1.525 4.619v1.392h-9.122c.034 1.042.303 1.858.807 2.446.504.587 1.26.88 2.268.88 1.394 0 2.218-.579 2.47-1.738h3.426c-.235 1.458-.827 2.562-1.776 3.317-.95.753-2.331 1.13-4.146 1.13-2.184 0-3.826-.597-4.926-1.79-1.1-1.19-1.65-2.88-1.65-5.066 0-1.093.159-2.065.478-2.92.32-.85.77-1.576 1.348-2.17a5.678 5.678 0 0 1 2.08-1.355c.806-.306 1.696-.46 2.67-.46ZM53.523.446V18.18h-3.427v-1.713c-1.007 1.408-2.369 2.11-4.082 2.11-1.848 0-3.224-.61-4.133-1.836-.907-1.225-1.36-2.923-1.36-5.093 0-1.01.129-1.933.39-2.769.261-.836.634-1.556 1.121-2.16a5.008 5.008 0 0 1 1.79-1.405c.705-.33 1.503-.495 2.393-.495.656 0 1.307.115 1.954.348.646.231 1.255.678 1.826 1.34V.447h3.528ZM21.47 1.763v3.453h3.024v2.707H21.47v5.986c0 .679.144 1.138.43 1.379.284.24.655.36 1.108.36.234 0 .474-.012.718-.038.242-.024.482-.07.718-.136l.504 2.558a8.566 8.566 0 0 1-1.424.311c-.462.057-.903.086-1.322.086-1.446 0-2.516-.339-3.213-1.02-.698-.677-1.047-1.82-1.047-3.426v-6.06h-2.066V5.216h2.066V1.763h3.528ZM157 .447V18.18h-3.527V.447H157ZM59.95 5.216V18.18h-3.527V5.216h3.526Zm56.633-.398c1.36 0 2.38.37 3.06 1.106.682.737 1.021 1.933 1.021 3.589v8.668h-3.526V9.985c0-.464-.044-.841-.128-1.131-.084-.289-.196-.517-.34-.683a1.145 1.145 0 0 0-.516-.347 2.005 2.005 0 0 0-.63-.1c-.353 0-.677.058-.97.174a2.637 2.637 0 0 0-.869.595 2.793 2.793 0 0 0-.567.796 2.158 2.158 0 0 0-.215.944v7.948h-3.528V9.985c0-.464-.04-.841-.126-1.131-.084-.289-.198-.517-.34-.683a1.145 1.145 0 0 0-.517-.347 2.005 2.005 0 0 0-.63-.1 2.63 2.63 0 0 0-.97.174c-.295.116-.584.315-.87.595-.233.233-.424.51-.566.834a2.574 2.574 0 0 0-.215 1.055v7.8h-3.528V5.215h3.428v1.738c.487-.728 1.058-1.268 1.713-1.615a4.36 4.36 0 0 1 2.067-.52c.958 0 1.738.19 2.343.57.605.381 1.033.936 1.285 1.665.605-.795 1.243-1.368 1.915-1.715a4.768 4.768 0 0 1 2.22-.52ZM88.358.446V3.65H82.94v14.53h-3.78V3.65h-5.418V.446h14.616ZM69.046 7.6c-1.008 0-1.76.348-2.255 1.043-.496.697-.744 1.707-.744 3.032 0 1.34.243 2.364.73 3.067.49.704 1.244 1.056 2.269 1.056 1.008 0 1.76-.356 2.256-1.068.495-.712.742-1.73.742-3.055 0-1.325-.247-2.335-.742-3.032-.496-.695-1.248-1.043-2.256-1.043Zm60.916.05c-.437 0-.815.06-1.133.175-.32.115-.631.298-.933.547-.336.313-.584.71-.743 1.19-.161.482-.24 1.093-.24 1.839v.397c0 .846.072 1.52.215 2.025.142.506.373.914.692 1.229.336.299.676.493 1.02.584.346.091.695.136 1.048.136.385 0 .754-.073 1.107-.222a2.36 2.36 0 0 0 .92-.709c.26-.323.467-.741.618-1.253.152-.514.226-1.135.226-1.863 0-.762-.072-1.4-.215-1.914-.143-.512-.34-.93-.591-1.254a2.177 2.177 0 0 0-.894-.695 2.873 2.873 0 0 0-1.097-.212Zm-82.915-.023a2.74 2.74 0 0 0-1.097.222 2.41 2.41 0 0 0-.906.695c-.26.316-.466.729-.618 1.243-.15.513-.226 1.126-.226 1.837 0 .78.072 1.429.214 1.95.142.522.34.944.592 1.267.252.323.546.555.883.696.335.14.696.212 1.082.212.84 0 1.53-.24 2.068-.722.335-.331.582-.732.743-1.204.16-.473.239-1.08.239-1.825v-.448c0-.827-.072-1.49-.215-1.987-.143-.497-.373-.902-.693-1.217a2.164 2.164 0 0 0-.994-.583 4.379 4.379 0 0 0-1.072-.136Zm46.023-.2c-.47 0-.881.074-1.234.223a2.614 2.614 0 0 0-.895.61 2.75 2.75 0 0 0-.568.893 3.36 3.36 0 0 0-.226 1.105h5.67c0-.894-.224-1.59-.669-2.086-.445-.497-1.137-.745-2.078-.745Zm51.834 0c-.47 0-.88.074-1.233.223a2.614 2.614 0 0 0-.896.61 2.75 2.75 0 0 0-.567.893c-.134.34-.21.708-.227 1.105h5.67c0-.894-.223-1.59-.668-2.086-.446-.497-1.138-.745-2.079-.745ZM60 .446v3.13h-3.63V.446H60Z" fill="#222423"/></svg>