<?xml version="1.0" encoding="UTF-8"?>
<svg width="30px" height="30px" viewBox="0 0 30 30" version="1.1" xmlns="http://www.w3.org/2000/svg" xmlns:xlink="http://www.w3.org/1999/xlink">
    <title>Artboard</title>
    <g id="Artboard" stroke="none" stroke-width="1" fill="none" fill-rule="evenodd">
        <g id="Group" transform="translate(6.000000, 6.000000)" fill="#FFFFFF">
            <path d="M1.75430668,5.80190593 C1.79292608,6.31328265 1.95808563,6.68571618 2.24814196,6.91756221 C2.53901997,7.1502304 2.9671201,7.26697556 3.53244235,7.26697556 C3.80359982,7.26697556 4.03202945,7.2373782 4.21773123,7.17982776 C4.40343302,7.12145518 4.55462385,7.04417317 4.67130373,6.94715958 C4.78716193,6.85014599 4.87097424,6.73586727 4.92109728,6.60350127 C4.97122033,6.47195742 4.9966927,6.32890348 4.9966927,6.17351731 C4.9966927,5.95729211 4.91452377,5.75339914 4.75265098,5.56348271 C4.58995649,5.37356627 4.29168327,5.23544523 3.85700963,5.15076388 L2.77730987,4.9534481 C2.35085312,4.87534394 1.9753411,4.77504176 1.64995214,4.65089725 C1.32456317,4.52675274 1.05094063,4.36561152 0.830727893,4.16829575 C0.609693469,3.97097997 0.44124716,3.728446 0.325388967,3.44151598 C0.208709085,3.15458595 0.151190833,2.81339409 0.151190833,2.41876254 C0.151190833,2.02330884 0.230073007,1.67471764 0.388659044,1.37216679 C0.54806677,1.06961593 0.768279506,0.818038317 1.05094063,0.616611797 C1.33360175,0.414363128 1.67295944,0.261443402 2.068192,0.157030471 C2.46342455,0.05261754 2.89727651,0 3.36974786,0 C3.97368951,0 4.47738506,0.0698826703 4.88001282,0.208825862 C5.28264058,0.348591203 5.60802955,0.532752593 5.85617972,0.762132181 C6.10432989,0.99068962 6.2883883,1.25624377 6.40835494,1.55797247 C6.52832158,1.86052333 6.60720375,2.17376212 6.64664484,2.49933315 L5.00819635,2.70898116 C4.92274066,2.25186628 4.7584028,1.92300666 4.51436107,1.72075799 C4.27031935,1.51933147 3.89973747,1.41902928 3.40425882,1.41902928 C3.11009404,1.41902928 2.8676957,1.44369375 2.67870715,1.49384485 C2.48807523,1.54481809 2.33524102,1.60976786 2.21938283,1.69198277 C2.10270295,1.77255338 2.02217739,1.86792267 1.9753411,1.97644635 C1.92850481,2.08497002 1.90549751,2.19760444 1.90549751,2.31352746 C1.90549751,2.62347766 1.99259658,2.85614584 2.16679471,3.01153202 C2.34099285,3.16691819 2.63762269,3.28695195 3.05586255,3.37163331 L4.19472393,3.5927914 C5.09283035,3.77119775 5.75182518,4.05977207 6.17006504,4.45851437 C6.5883049,4.85807881 6.79783567,5.43358315 6.79783567,6.1850274 C6.79783567,6.55006158 6.72963546,6.88467625 6.59405672,7.1905157 C6.45847798,7.4971773 6.2571641,7.76437575 5.98929339,7.99293319 C5.72306605,8.22231277 5.38781681,8.40071912 4.98436736,8.52815223 C4.5817396,8.65640748 4.10926824,8.71971296 3.5669533,8.71971296 C2.43630881,8.71971296 1.57024827,8.47800113 0.970415076,7.99293319 C0.36976019,7.50868739 0.0460146014,6.77861902 0,5.80190593 L1.75430668,5.80190593 Z" id="Fill-1"></path>
            <polygon id="Fill-3" points="13.4593449 12.3153417 10.6623145 12.3153417 10.6623145 10.6488455 18 10.6488455 18 12.3153417 15.2029696 12.3153417 15.2029696 17.9191097 13.4593449 17.9191097"></polygon>
            <path d="M4.32011372,13.4311624 C4.74903554,13.8956766 4.72109811,14.6199899 4.25684364,15.0491518 C3.79258918,15.4791357 3.0686809,15.4503605 2.63975908,14.9866684 C2.21001557,14.5221542 2.2387747,13.7970187 2.70302916,13.3678569 C3.16646193,12.9386951 3.8911919,12.9666482 4.32011372,13.4311624" id="Fill-6"></path>
            <path d="M15.2198142,3.55842557 C15.6503794,4.02458409 15.622442,4.75136386 15.1565441,5.18299212 C14.6906463,5.61379823 13.9634513,5.58502301 13.5328861,5.11886449 C13.1023209,4.65352812 13.13108,3.9259262 13.5961561,3.49512009 C14.062054,3.06431399 14.789249,3.09226705 15.2198142,3.55842557" id="Fill-8"></path>
        </g>
    </g>
</svg>