
<svg width="18px" height="18px" viewBox="0 0 18 18" version="1.1" xmlns="http://www.w3.org/2000/svg" xmlns:xlink="http://www.w3.org/1999/xlink">
    <g id="Page-1" stroke="none" stroke-width="1" fill="none" fill-rule="evenodd">
        <g id="Group-3" transform="translate(-23, -14)" fill="#F4F4ED" fill-rule="nonzero">
            <g id="Group-4" transform="translate(15, 7)">
                <path d="M26,18.4305417 L26,19.9366603 L23.4837945,19.9366603 L23.4837945,25 L21.915701,25 L21.915701,19.9366603 L19.3993947,19.9366603 L19.3993947,18.4305417 L26,18.4305417 Z M20.2208902,11.4745852 L21.3431453,12.601897 L13.2932628,20.6881004 L12.1710077,19.5608897 L20.2208902,11.4745852 Z M11.0410533,7 L11.2412948,7.00296417 C11.6986104,7.01679515 12.0865035,7.07901503 12.404569,7.1893528 L12.5803889,7.25584898 C12.8637828,7.37232971 13.0989576,7.51705151 13.2855634,7.68960441 L13.3925664,7.79575386 C13.562894,7.97736119 13.6931905,8.18238378 13.783806,8.41017717 L13.8581465,8.61729762 C13.925524,8.82631557 13.9720831,9.04108322 13.9984615,9.26211285 L12.5198582,9.45176927 L12.4875443,9.30204102 C12.4043754,8.96531618 12.2667813,8.71707846 12.0740198,8.55732789 L11.9964871,8.4998955 C11.7784489,8.35578311 11.4701851,8.28397571 11.0728989,8.28397571 L10.9190339,8.28666614 C10.7214847,8.29384922 10.5543396,8.31545022 10.4174438,8.35188366 L10.2949428,8.38896705 C10.1787341,8.42854574 10.0814022,8.47568154 10.0029472,8.53101484 L9.93013878,8.58844182 C9.86327626,8.64825338 9.81424182,8.7151809 9.78295054,8.78888277 L9.74798828,8.88815644 C9.72932581,8.95509354 9.71996473,9.0235749 9.71996473,9.09381054 L9.72476742,9.20986 C9.74398263,9.43333979 9.8208859,9.60512229 9.95598498,9.72552616 L10.0201072,9.77666682 C10.1817827,9.89250179 10.4278491,9.9839001 10.7581716,10.0512008 L11.7858977,10.2513824 L11.984105,10.2938397 C12.6943406,10.4571323 13.2227876,10.7042031 13.5687474,11.0352077 L13.6591929,11.1287953 C13.9764074,11.4841883 14.1350146,11.9741705 14.1350146,12.5974946 L14.129896,12.7601633 C14.1128408,13.0276231 14.0532003,13.27681 13.9514993,13.5077238 L13.8853656,13.643452 C13.7668754,13.8647211 13.6070595,14.06131 13.406093,14.2338629 L13.280456,14.3335892 C13.0625462,14.4934541 12.8020512,14.6215756 12.4987957,14.7177195 L12.3392378,14.7638372 C12.0123318,14.8489832 11.6387485,14.891588 11.2196305,14.891588 L11.00454,14.8882299 C10.0883754,14.8591268 9.37883384,14.6408694 8.875754,14.2338629 L8.76347828,14.1364886 C8.29350339,13.6997724 8.03874162,13.0711657 8,12.2506684 L9.58341162,12.2506684 L9.59933787,12.4003232 C9.65301387,12.7869199 9.79633146,13.0736596 10.0291492,13.2606848 L10.1211843,13.3269211 C10.3788599,13.4931567 10.7345114,13.5762389 11.1877849,13.5762389 L11.330146,13.573083 C11.5137831,13.5646693 11.6727047,13.5394412 11.8068593,13.4975022 L11.9267795,13.4545774 C12.0408389,13.4084237 12.1372826,13.352578 12.2158133,13.2869978 L12.2889634,13.2182835 C12.3565109,13.1465836 12.4072648,13.0659176 12.4413527,12.9762002 L12.471145,12.8851023 C12.4967109,12.7919455 12.5095789,12.6926264 12.5095789,12.587273 L12.5034352,12.4901537 C12.4829625,12.3299561 12.4113547,12.1781219 12.2890783,12.0350026 L12.2283063,11.97283 C12.073097,11.8328823 11.8240544,11.7288097 11.4816513,11.6611548 L10.5067325,11.4824285 L10.2813196,11.4379205 C9.98810468,11.3751157 9.72419739,11.2985407 9.48918493,11.2090763 L9.31875452,11.1377267 C9.09897956,11.037248 8.9091314,10.9153822 8.74998404,10.7720773 L8.63597355,10.6600614 C8.49156704,10.504178 8.37755173,10.322205 8.29346329,10.1144533 L8.2454835,9.98061194 C8.17280497,9.75071478 8.13655311,9.48668466 8.13655311,9.18863872 L8.14090652,9.03797246 C8.15832721,8.74178152 8.22807325,8.4764369 8.35090626,8.24187486 L8.42738221,8.10872404 C8.56254961,7.89325785 8.73627834,7.70998012 8.94891824,7.5578367 L9.08074837,7.47026008 C9.30753678,7.33039468 9.56965551,7.22099594 9.86669641,7.1418881 C10.2231454,7.0474647 10.6148664,7 11.0410533,7 Z" id="Combined-Shape"></path>
            </g>
        </g>
    </g>
</svg>